<?xml version="1.0" standalone="no"?>
<!DOCTYPE svg PUBLIC "-//W3C//DTD SVG 20010904//EN"
 "http://www.w3.org/TR/2001/REC-SVG-20010904/DTD/svg10.dtd">
<svg version="1.0" xmlns="http://www.w3.org/2000/svg"
 width="740.000000pt" height="580.000000pt" viewBox="0 0 740.000000 580.000000"
 preserveAspectRatio="xMidYMid meet">
<metadata>
Created by potrace 1.16, written by Peter Selinger 2001-2019
</metadata>
<g transform="translate(0.000000,580.000000) scale(0.100000,-0.100000)"
fill="#000000" stroke="none">
<path d="M4097 5424 c-3 -3 -36 -6 -73 -6 -58 0 -73 -4 -97 -24 -16 -13 -39
-24 -52 -24 -30 0 -95 -38 -95 -55 0 -7 -20 -26 -44 -42 -31 -19 -53 -44 -71
-80 -15 -30 -32 -50 -38 -46 -5 3 -7 1 -4 -4 4 -6 3 -24 -2 -39 -20 -65 -32
-165 -33 -268 0 -80 -5 -123 -19 -163 -11 -30 -17 -59 -13 -64 3 -6 -4 -21
-17 -35 -12 -13 -19 -27 -16 -31 4 -3 7 -1 7 6 0 7 5 9 10 6 6 -3 10 -1 10 4
0 6 4 11 10 11 12 0 2 -28 -22 -59 -10 -13 -18 -31 -18 -39 0 -13 3 -12 15 4
8 10 15 14 15 7 0 -7 7 -10 15 -7 22 9 18 -4 -19 -60 -33 -49 -45 -74 -119
-236 -46 -103 -215 -324 -294 -386 -34 -26 -73 -63 -88 -81 -14 -19 -31 -31
-36 -27 -5 3 -8 2 -7 -3 5 -15 -115 -203 -134 -211 -5 -2 -8 -9 -8 -16 0 -18
-35 -48 -45 -39 -4 5 -5 3 -2 -4 6 -9 -46 -83 -72 -103 -3 -3 -19 -24 -34 -47
-15 -23 -50 -61 -78 -83 -48 -38 -69 -43 -69 -17 0 8 3 8 9 -1 7 -11 13 -9 30
9 16 17 18 25 9 31 -10 6 -10 8 -1 8 6 0 15 -6 19 -12 6 -9 10 -5 14 12 4 16
12 24 23 22 22 -4 22 26 1 56 -9 13 -14 25 -11 28 2 3 12 -7 21 -21 16 -24 36
-26 36 -4 0 6 -4 8 -9 5 -5 -3 -11 0 -14 7 -3 8 1 14 9 14 8 0 14 -4 14 -9 0
-5 4 -7 10 -3 5 3 8 11 6 18 -1 7 -1 9 1 5 8 -14 23 -9 23 7 0 8 -4 15 -10 15
-5 0 -10 5 -10 11 0 6 9 8 20 4 18 -6 19 -4 9 19 -13 27 -5 61 11 51 5 -3 10
3 10 15 0 12 -4 18 -10 15 -5 -3 -10 -1 -10 4 0 6 7 11 15 11 14 0 20 12 16
34 -1 5 5 16 13 25 13 14 14 30 7 92 l-8 74 -3 -70 c-2 -46 -5 -57 -7 -32 -2
20 -8 37 -14 37 -5 0 -9 18 -9 40 0 29 -4 40 -15 40 -12 0 -15 18 -16 98 -1
137 -14 170 -23 65 -8 -85 -26 -115 -26 -43 0 25 -5 40 -12 40 -7 1 -29 14
-48 30 -28 25 -34 36 -32 65 2 20 0 40 -3 45 -8 13 -35 1 -35 -16 0 -10 -12
-14 -40 -14 -36 0 -40 -2 -40 -25 0 -31 -7 -31 -31 -4 -13 15 -17 30 -12 47 4
17 2 23 -6 18 -6 -4 -11 -14 -11 -23 0 -10 -6 -13 -16 -9 -12 5 -15 2 -12 -12
3 -11 -1 -30 -8 -43 -9 -15 -13 -18 -14 -9 0 9 6 22 13 29 9 11 9 12 0 7 -7
-4 -20 -24 -30 -44 -9 -20 -25 -46 -35 -56 -19 -21 -25 -51 -8 -41 6 4 7 -1 3
-11 -6 -16 -7 -16 -16 2 -6 16 0 34 27 80 20 32 36 67 36 77 0 10 4 16 8 13
16 -10 87 166 107 264 11 54 38 100 121 206 77 98 150 199 170 235 6 11 20 30
31 42 41 46 75 129 70 169 -7 55 -22 68 -76 68 -58 0 -217 -76 -306 -146 -33
-26 -82 -61 -110 -79 -27 -18 -63 -44 -78 -59 -15 -14 -31 -26 -36 -26 -4 0
-18 57 -31 128 -33 177 -79 265 -152 288 -17 5 -18 8 -7 16 10 7 8 8 -8 3 -12
-3 -24 -1 -27 4 -4 5 -27 13 -53 17 -60 9 -137 -10 -183 -46 -19 -15 -49 -35
-67 -45 -59 -34 -108 -198 -99 -331 10 -152 18 -199 37 -240 32 -68 25 -83
-51 -99 -45 -10 -101 -47 -95 -63 3 -7 1 -10 -5 -7 -9 6 -33 -29 -25 -37 3 -2
-15 -25 -40 -51 -24 -26 -51 -60 -60 -77 -9 -17 -22 -29 -28 -27 -16 6 -87
-34 -87 -48 0 -7 -11 -11 -24 -10 -18 2 -23 -1 -19 -11 7 -20 -7 -17 -24 4
-13 15 -13 15 -3 -5 7 -16 7 -23 0 -23 -14 0 16 -72 37 -88 15 -11 14 -15 -17
-41 -22 -18 -39 -26 -44 -20 -15 14 -26 11 -26 -6 0 -8 6 -15 13 -15 12 0 -62
-69 -76 -70 -4 0 -16 20 -27 44 -10 25 -28 49 -39 55 -24 13 -18 41 9 41 23 0
44 26 37 44 -6 14 -2 16 50 17 12 0 24 7 27 14 3 10 0 12 -12 8 -9 -3 -14 -3
-10 2 4 4 3 14 -4 22 -6 7 -7 17 -3 21 4 4 10 1 12 -5 5 -15 23 -17 23 -4 0 5
-9 13 -20 16 -14 4 -20 15 -20 35 0 16 -6 32 -12 37 -24 15 -103 32 -106 22
-7 -18 -31 -9 -54 20 -30 38 -68 58 -68 36 0 -20 -37 -19 -48 1 -6 11 -28 18
-62 22 -50 5 -52 4 -41 -16 12 -23 2 -35 -39 -47 -33 -10 -50 -24 -50 -43 0
-8 -12 -40 -26 -70 -14 -30 -28 -68 -30 -85 -2 -17 -8 -35 -14 -41 -5 -5 -10
-32 -10 -58 0 -26 -4 -48 -10 -48 -5 0 -10 -20 -10 -45 0 -26 -8 -59 -20 -80
-11 -20 -20 -53 -20 -75 0 -22 -4 -40 -10 -40 -5 0 -10 -13 -10 -30 0 -21 -5
-30 -16 -30 -18 0 -34 -15 -53 -52 -13 -25 -12 -30 4 -48 16 -18 16 -20 2 -20
-10 0 -17 5 -17 12 0 9 -3 9 -12 0 -7 -7 -23 -12 -38 -12 -32 0 -55 -15 -45
-30 4 -6 -1 -17 -10 -24 -16 -12 -16 -13 1 -30 14 -15 15 -19 3 -27 -11 -7
-11 -9 3 -9 9 0 20 5 23 10 3 6 12 10 18 10 7 0 4 -7 -5 -14 -13 -9 -18 -27
-18 -62 0 -33 -3 -44 -9 -35 -7 11 -10 5 -13 -20 -2 -25 -7 -33 -19 -31 -11 1
-18 -7 -22 -27 -3 -16 -13 -36 -22 -44 -8 -9 -15 -23 -15 -31 0 -9 -4 -16 -9
-16 -5 0 -12 -10 -14 -22 l-4 -23 -2 23 c0 12 -6 22 -12 22 -7 0 -8 -11 -4
-30 4 -19 3 -30 -5 -30 -7 0 -8 -6 0 -19 16 -32 4 -47 -35 -43 -30 4 -35 1
-35 -17 0 -12 -5 -21 -10 -21 -6 0 -5 -8 2 -19 10 -17 6 -26 -40 -69 l-52 -50
0 -661 c0 -434 3 -661 10 -661 6 0 10 5 10 10 0 6 20 10 45 10 25 0 45 5 45
10 0 6 5 10 10 10 16 0 12 -15 -11 -41 -15 -18 -22 -20 -28 -10 -6 10 -10 9
-14 -3 -5 -13 1 -16 36 -16 60 -1 116 -15 148 -39 15 -11 33 -22 41 -23 7 -2
18 -11 24 -21 6 -10 21 -24 34 -30 12 -7 31 -27 41 -46 22 -41 45 -66 36 -38
-4 12 -3 16 4 11 6 -4 8 -20 5 -39 -4 -19 -2 -36 3 -39 5 -4 7 4 4 16 -5 23
-5 23 10 3 9 -11 17 -28 17 -37 0 -10 5 -18 11 -18 5 0 8 -4 5 -9 -4 -5 12 -7
36 -4 32 3 39 2 28 -6 -9 -7 -10 -11 -3 -11 6 0 15 5 18 10 3 5 24 10 45 10
22 0 59 6 82 14 27 9 125 17 268 22 235 9 912 13 943 6 17 -4 17 -6 1 -23 -9
-11 -23 -19 -31 -19 -26 0 -13 -18 18 -25 28 -6 30 -10 25 -39 -4 -17 -7 -37
-8 -43 -1 -12 -13 -17 -32 -14 -5 1 -19 -8 -32 -20 -12 -11 -29 -19 -36 -16
-24 8 -46 -11 -41 -36 3 -14 0 -28 -6 -32 -8 -5 -10 1 -5 21 7 27 6 27 -32 21
-21 -4 -45 -14 -52 -24 -10 -14 -16 -15 -32 -5 -13 8 -21 8 -26 1 -5 -8 -8 -8
-13 0 -5 7 -32 8 -86 2 -75 -8 -77 -8 -25 -10 86 -3 36 -23 -55 -22 -41 0 -75
-4 -75 -9 0 -5 -14 -8 -31 -8 -32 1 -20 18 14 18 9 0 17 5 17 11 0 9 -61 10
-227 4 -126 -4 -302 -8 -393 -9 -91 -2 -174 -7 -185 -13 -11 -6 -49 -11 -85
-12 -36 -2 -68 -7 -71 -13 -3 -5 -30 -9 -60 -8 -147 4 -190 3 -261 -4 l-78 -9
0 -374 0 -373 1745 0 c1479 0 1745 2 1745 14 0 8 7 16 15 20 10 4 15 -1 15
-14 0 -24 17 -27 22 -3 3 15 22 17 156 21 148 3 152 3 152 -17 0 -21 4 -21
215 -21 l215 0 0 60 c0 45 3 60 14 60 8 0 17 8 19 18 4 16 5 16 6 0 2 -26 41
-24 41 2 0 14 -7 20 -21 20 -14 0 -19 5 -17 17 2 10 10 17 16 16 8 -2 12 12
12 40 0 24 3 47 7 50 3 4 8 19 9 33 5 42 12 54 29 48 11 -5 14 -2 8 11 -6 17
2 18 128 10 74 -5 146 -9 162 -9 15 -1 27 -4 27 -8 0 -5 45 -8 100 -8 55 0
100 -4 100 -8 0 -5 24 -8 53 -8 75 1 168 -6 197 -15 38 -11 259 -33 445 -45
49 -3 94 -9 100 -13 19 -15 54 -19 59 -7 3 8 5 8 5 -1 1 -8 15 -10 50 -6 31 3
51 1 55 -6 4 -6 25 -11 48 -11 59 0 251 -40 269 -56 9 -8 37 -14 63 -14 26 0
56 -5 67 -11 21 -11 133 -27 247 -36 57 -4 62 -3 56 14 -4 13 -3 15 4 4 6 -9
17 -11 33 -6 27 9 54 33 46 42 -9 9 17 31 30 26 7 -3 13 0 13 6 0 6 -7 11 -15
11 -18 0 -18 2 -3 35 12 27 20 30 48 15 12 -7 21 -6 28 3 14 17 11 47 -5 47
-7 0 -13 -9 -13 -20 0 -24 -13 -26 -30 -5 -10 12 -9 15 5 15 10 0 16 3 13 6
-7 6 -67 13 -177 20 -41 2 -93 9 -115 15 -36 10 -200 23 -233 19 -61 -8 -447
9 -488 21 -33 9 -292 48 -370 54 -27 3 -61 9 -75 14 -14 5 -59 12 -100 15 -41
3 -86 8 -100 10 -14 3 -54 10 -90 16 -85 14 -101 20 -95 30 7 12 -18 18 -105
25 -41 3 -154 17 -250 31 -180 26 -191 27 -224 22 -15 -2 -26 8 -43 38 -18 31
-19 41 -8 41 8 0 12 -4 9 -9 -3 -4 -2 -13 2 -20 5 -7 11 -5 21 7 7 11 13 14
13 8 0 -7 -4 -15 -10 -18 -12 -7 -12 -16 -2 -33 7 -10 16 -10 44 2 19 9 37 13
40 11 2 -2 4 5 4 15 0 11 -4 20 -8 20 -5 0 -3 10 3 22 10 19 8 25 -15 43 -22
18 -26 27 -21 51 l7 29 -15 -25 c-12 -21 -12 -28 -1 -47 8 -12 14 -30 13 -40
-1 -12 -3 -10 -9 7 l-8 25 -1 -25 c-1 -19 -3 -22 -11 -10 -5 9 -5 19 1 26 6 8
6 14 0 18 -5 3 -11 1 -13 -6 -3 -9 -10 -8 -22 5 -10 10 -33 24 -51 32 -27 10
-35 21 -40 49 -4 19 -5 41 -2 48 3 7 6 1 6 -14 1 -15 6 -30 11 -33 6 -4 8 -10
5 -15 -10 -16 30 -31 45 -17 10 9 11 9 6 -1 -10 -18 4 -38 15 -21 7 11 9 10 9
-3 0 -31 15 -19 28 23 9 30 10 45 2 54 -15 18 -52 15 -45 -3 2 -7 0 -10 -5 -7
-6 3 -10 13 -10 21 0 8 -6 14 -14 14 -20 0 -29 17 -22 43 5 20 12 22 54 22 55
0 60 14 10 33 -21 8 -35 8 -43 2 -19 -16 -45 -1 -41 23 3 23 3 23 161 13 16
-1 20 -9 22 -40 1 -43 18 -60 44 -45 10 5 61 7 113 4 64 -4 96 -2 96 5 0 13
43 13 57 -1 8 -8 17 -8 32 0 16 9 21 9 21 0 0 -8 11 -10 33 -6 42 7 87 -2 87
-17 0 -6 11 -13 25 -14 30 -2 34 18 5 25 -41 11 -18 21 36 17 36 -3 53 -1 49
6 -3 5 -28 10 -55 10 -27 0 -52 5 -56 12 -4 7 -3 8 5 4 16 -10 53 3 45 16 -4
7 -9 6 -14 -3 -7 -10 -20 -8 -60 9 -30 13 -75 22 -104 22 -44 1 -48 2 -31 13
29 17 617 20 651 3 17 -10 39 -11 81 -4 72 12 254 2 264 -14 6 -9 13 -8 27 5
21 19 49 22 54 7 2 -7 30 -7 86 1 69 9 94 8 153 -5 73 -16 83 -23 113 -68 14
-21 24 -27 42 -24 13 3 24 0 24 -6 0 -5 -6 -8 -14 -5 -9 4 -15 -4 -18 -23 -4
-24 0 -31 23 -40 15 -7 37 -9 48 -5 19 6 21 2 21 -29 0 -44 10 -45 43 -6 14
17 33 30 42 30 12 0 15 6 10 20 -5 15 -2 20 12 20 23 0 43 18 37 34 -6 15 68
46 111 46 36 0 81 16 104 38 8 8 24 11 43 7 17 -4 35 -2 44 5 10 9 34 11 82 6
178 -19 178 -19 210 -2 23 12 38 14 50 7 15 -8 186 -16 265 -12 l27 1 0 125
c0 120 -1 125 -21 125 -14 0 -19 -5 -16 -14 8 -19 -31 -12 -47 8 -16 21 -116
29 -116 9 0 -8 -6 -13 -12 -10 -7 2 -12 10 -10 16 1 7 -8 5 -23 -5 -22 -14
-32 -15 -63 -6 -56 17 -130 24 -136 13 -4 -5 -62 -7 -143 -4 -76 3 -145 4
-153 3 -8 0 -52 -2 -97 -3 -46 -1 -83 -5 -83 -9 0 -4 -13 -2 -29 3 -42 15 -55
73 -30 135 14 33 16 39 18 57 1 7 6 5 12 -6 7 -12 7 -22 0 -30 -6 -8 -6 -18
-1 -27 7 -12 11 -7 16 17 4 18 10 30 15 27 5 -3 13 6 18 19 6 14 14 26 20 28
5 2 13 22 17 43 5 28 4 37 -5 32 -7 -4 -9 -2 -5 7 3 8 1 18 -5 21 -6 4 -13 -5
-17 -21 -9 -42 -14 -52 -10 -18 2 17 15 57 30 91 14 33 33 87 41 120 35 126
50 718 25 951 -16 151 -88 422 -123 460 -27 30 -35 138 -13 180 8 17 20 51 26
77 5 25 31 78 56 117 28 43 53 98 64 138 22 86 115 239 189 310 31 30 88 81
126 114 108 91 263 247 296 296 35 53 41 124 12 139 -28 14 -182 22 -243 13
-211 -33 -264 -40 -336 -43 l-82 -3 -5 50 c-16 138 -16 150 -8 120 l9 -30 1
38 c1 26 -3 36 -10 31 -9 -5 -10 1 -5 20 4 18 3 25 -3 21 -13 -7 -53 69 -43
81 4 5 3 6 -2 2 -12 -10 -39 20 -30 34 4 7 4 10 0 6 -5 -4 -25 2 -47 14 -21
11 -46 21 -54 22 -9 1 -21 9 -26 17 -5 8 -9 10 -9 4 0 -5 -7 -1 -15 9 -14 18
-15 18 -15 2 0 -19 -27 -51 -44 -51 -6 0 -11 -6 -11 -14 0 -8 -22 -26 -48 -41
-27 -15 -52 -33 -57 -40 -4 -7 -12 -10 -18 -6 -6 3 -14 -4 -18 -16 -4 -13 -14
-28 -23 -35 -11 -9 -12 -12 -3 -13 8 0 10 -5 5 -12 -19 -30 -29 -77 -24 -114
4 -35 5 -37 12 -14 7 24 7 24 8 3 1 -26 63 -200 91 -258 27 -54 27 -121 0
-130 -48 -15 -131 -26 -195 -25 -67 1 -74 -1 -130 -39 -33 -22 -91 -71 -130
-111 -38 -39 -85 -80 -103 -92 -21 -13 -31 -26 -28 -35 5 -11 1 -13 -16 -7
-17 5 -20 3 -15 -10 4 -10 3 -15 -2 -12 -4 3 -22 0 -40 -7 -32 -12 -34 -21
-15 -71 3 -9 1 -16 -5 -16 -6 0 -14 14 -17 30 -7 34 -7 34 -32 20 -9 -5 -51
-25 -93 -43 -42 -19 -79 -40 -84 -46 -5 -9 -11 -9 -23 1 -13 11 -15 11 -9 -4
9 -25 -19 -44 -40 -27 -16 12 -17 12 -5 -2 10 -14 6 -22 -31 -52 -50 -40 -83
-41 -93 -1 -5 20 -13 24 -41 24 -20 0 -32 -4 -28 -10 3 -5 13 -10 21 -10 8 0
23 -9 33 -19 18 -18 18 -20 2 -37 -15 -17 -15 -17 11 -1 15 9 31 17 35 17 14
-1 -39 -40 -53 -40 -8 0 -14 -4 -14 -9 0 -9 -71 -61 -84 -61 -4 0 -4 5 0 12 4
7 3 8 -5 4 -6 -4 -9 -11 -6 -16 8 -12 -41 -43 -55 -35 -6 4 -9 3 -8 -2 8 -24
-104 -125 -130 -117 -14 5 -15 4 -2 -5 14 -10 7 -16 -13 -12 -5 1 -6 -3 -3 -8
11 -17 -106 -83 -130 -74 -12 4 -15 3 -10 -5 4 -7 -3 -14 -18 -18 -27 -6 -41
-30 -24 -40 7 -4 6 -9 -2 -14 -9 -6 -8 -14 5 -34 10 -14 22 -26 29 -26 7 0 6
4 -2 9 -10 6 11 22 70 56 45 27 85 47 88 46 3 -1 4 -9 2 -17 -2 -8 2 -14 8
-14 5 0 10 8 10 18 0 9 14 25 31 35 34 19 53 22 44 7 -4 -6 -10 -8 -15 -5 -5
3 -11 1 -15 -5 -6 -9 14 -14 40 -11 6 1 3 -4 -5 -11 -12 -10 -14 -35 -12 -120
3 -103 2 -108 -18 -108 -17 0 -20 -6 -20 -40 0 -23 5 -40 11 -40 8 0 10 -40 7
-142 -3 -79 -3 -124 -1 -100 4 45 23 59 23 17 0 -15 7 -40 16 -57 13 -25 15
-48 9 -120 -7 -85 -9 -90 -29 -86 -20 4 -21 1 -18 -74 2 -51 0 -78 -7 -78 -14
0 -14 -50 -1 -70 7 -11 10 -4 10 28 0 38 2 42 25 42 24 0 25 -3 25 -59 0 -32
-3 -86 -6 -120 -6 -50 -10 -61 -25 -61 -11 0 -19 -4 -19 -10 0 -5 18 -10 40
-10 38 0 40 -2 40 -30 0 -29 -2 -30 -46 -30 l-47 0 5 -50 c4 -44 2 -51 -18
-65 -13 -8 -26 -26 -30 -40 -3 -14 -10 -25 -15 -25 -5 0 -9 -7 -9 -16 0 -18
-23 -44 -39 -44 -6 0 -11 -4 -11 -10 0 -5 9 -10 21 -10 16 0 20 -5 17 -27 -2
-16 -9 -29 -15 -29 -7 -1 -21 -2 -30 -3 -14 -1 -15 -3 -5 -10 8 -4 14 -12 15
-17 1 -5 7 -8 14 -6 21 5 16 -57 -4 -65 -28 -10 -53 -44 -53 -70 0 -14 -6 -23
-15 -23 -8 0 -15 -8 -15 -17 -1 -22 -25 -55 -33 -46 -11 10 -8 -10 3 -27 8
-13 10 -12 10 3 0 10 4 15 10 12 6 -3 7 1 4 9 -3 9 -1 16 5 16 6 0 11 7 11 15
0 9 7 18 15 21 8 4 15 12 15 19 0 7 11 16 24 19 24 6 28 19 13 44 -5 7 -3 12
7 12 26 0 19 -46 -9 -64 -14 -9 -25 -22 -25 -29 0 -6 5 -4 11 5 10 19 69 26
69 9 0 -17 -22 -24 -31 -10 -7 11 -14 8 -34 -15 -15 -18 -25 -24 -26 -15 -1
21 -28 -43 -29 -68 0 -12 -7 -28 -15 -36 -8 -8 -12 -17 -8 -20 3 -3 -4 -5 -16
-4 -11 1 -21 5 -21 9 0 4 -5 8 -11 8 -8 0 -8 -5 1 -15 7 -8 16 -12 21 -9 5 3
9 0 9 -5 0 -15 -21 -13 -44 4 -10 8 -24 11 -30 8 -19 -12 -107 -15 -120 -4
-15 13 -26 4 -25 -18 0 -12 2 -11 8 3 7 19 8 19 13 0 4 -15 0 -21 -11 -21 -29
0 -29 17 2 105 26 74 31 106 35 217 2 72 8 132 12 135 10 8 -8 205 -31 320
-29 146 -82 348 -139 525 -96 300 -111 363 -114 503 -3 111 -1 132 17 172 12
25 24 47 27 50 4 3 24 32 45 65 21 33 51 75 67 94 53 60 118 170 220 371 55
107 103 197 107 200 6 4 89 128 134 202 28 45 80 77 216 133 72 29 157 68 188
85 106 60 311 200 332 226 54 69 46 159 -17 190 -53 27 -261 25 -442 -3 -185
-29 -221 -31 -230 -13 -5 8 -28 56 -51 105 -39 80 -132 228 -166 263 -7 7 -16
19 -20 26 -5 8 -26 25 -47 40 -22 14 -44 36 -50 48 -7 14 -32 28 -74 40 -38
12 -60 24 -56 30 4 7 2 8 -4 4 -6 -4 -22 -1 -34 6 -25 14 -29 15 -108 26 -30
4 -60 11 -66 15 -6 3 -14 4 -17 1z m2843 -1034 c0 -17 -104 -87 -208 -139 -57
-28 -117 -61 -133 -73 -21 -16 -32 -19 -40 -11 -8 8 2 23 36 54 26 24 59 50
74 58 37 19 81 62 92 88 6 16 18 23 46 26 77 8 133 7 133 -3z m-5369 -422 c0
-29 2 -30 10 -13 7 15 8 8 4 -24 -3 -24 -11 -51 -18 -61 -28 -40 -132 -120
-174 -134 -26 -9 -55 -23 -65 -33 -10 -9 -18 -11 -18 -5 0 16 30 43 41 37 5
-4 9 -1 9 5 0 6 4 8 10 5 5 -3 22 1 37 10 l28 16 -35 -7 c-19 -3 -32 -3 -28 1
3 4 26 9 49 11 51 5 55 8 62 57 5 34 -6 53 -16 25 -2 -7 -3 -5 -1 5 2 13 -2
17 -12 13 -10 -4 -12 -2 -8 6 5 8 2 9 -9 5 -25 -10 -20 -1 13 23 23 16 34 19
49 11 14 -8 21 -8 25 2 3 8 9 7 19 -6 10 -12 17 -14 22 -8 3 6 2 11 -3 11 -11
0 -35 51 -27 59 3 3 11 -1 16 -9 8 -11 9 -10 4 8 -4 13 -2 22 4 22 6 0 11 -15
12 -32z m2021 -45 c-5 -10 -6 -27 -2 -38 12 -30 1 -66 -32 -105 -84 -100 -120
-139 -202 -218 -184 -177 -206 -201 -249 -268 -24 -38 -48 -80 -52 -93 -6 -19
-9 -21 -17 -10 -8 11 -9 10 -4 -4 3 -9 -5 -59 -19 -110 -34 -131 -59 -271
-105 -595 -37 -263 -44 -294 -94 -440 -33 -97 -58 -156 -65 -154 -7 1 -9 -2
-6 -8 4 -6 -9 -41 -28 -78 -18 -37 -44 -94 -56 -127 -13 -33 -28 -71 -34 -84
-7 -13 -11 -35 -9 -50 2 -24 1 -24 -7 -5 -11 25 -2 112 9 93 9 -14 22 20 25
64 1 20 -3 27 -17 27 -10 0 -18 6 -18 13 0 8 -3 8 -8 1 -9 -14 -38 -24 -46
-17 -3 3 1 11 9 17 17 12 23 75 9 97 -6 10 -10 3 -14 -26 -4 -32 -9 -40 -25
-40 -16 0 -20 7 -20 30 0 22 -4 30 -17 29 -11 -1 -18 5 -18 16 0 10 7 17 16
16 9 0 19 5 21 12 3 7 -4 12 -16 12 -15 0 -23 10 -32 40 -18 59 -29 49 -29
-28 0 -56 -3 -70 -20 -82 -11 -8 -20 -23 -20 -34 0 -11 -7 -28 -17 -38 -15
-17 -15 -18 0 -18 10 0 17 -7 17 -15 0 -20 -47 -20 -66 0 -9 8 -11 15 -5 15 6
0 11 16 11 35 0 25 5 37 18 41 51 17 63 28 61 59 -2 33 10 180 17 207 3 9 14
20 25 23 10 4 19 13 19 21 0 8 4 14 9 14 5 0 13 40 16 89 7 87 8 89 39 102 21
10 32 22 34 39 4 35 34 90 49 90 9 0 13 16 13 51 0 42 3 52 20 56 11 3 20 9
20 13 0 4 -9 10 -20 13 -17 4 -20 14 -20 66 l0 61 35 0 35 0 0 -50 c0 -27 5
-50 10 -50 6 0 10 33 10 80 0 79 0 80 25 80 22 0 25 4 25 36 0 31 18 64 34 64
3 0 6 -16 6 -35 0 -19 -4 -35 -10 -35 -5 0 -10 -7 -10 -15 0 -11 11 -15 40
-15 29 0 40 4 40 15 0 8 -9 15 -20 15 -16 0 -20 7 -20 35 0 27 4 35 18 35 15
0 17 13 16 151 -2 170 2 184 67 244 29 27 43 34 49 25 5 -9 9 -9 14 -1 4 6 2
11 -5 11 -7 0 -2 11 11 25 13 14 30 23 38 20 7 -2 11 -1 8 4 -3 5 45 57 107
117 62 60 138 143 169 184 30 41 88 109 127 150 40 41 86 94 104 117 32 42 46
50 29 16z m2283 -286 c-3 -156 -8 -242 -16 -262 -7 -17 -23 -64 -36 -105 -12
-41 -21 -62 -19 -47 3 24 1 27 -9 15 -8 -7 -15 -29 -18 -48 -2 -19 -2 -27 0
-17 2 9 8 17 13 17 11 0 -8 -59 -25 -80 -6 -8 -22 -42 -35 -74 -20 -49 -25
-56 -32 -40 -7 16 -8 15 -4 -5 6 -29 -23 -161 -35 -161 -12 0 -11 17 1 25 6 3
10 12 10 18 0 7 -7 3 -15 -7 -8 -11 -12 -29 -9 -39 4 -13 2 -17 -6 -12 -7 4
-11 1 -10 -6 1 -8 -1 -24 -5 -36 -6 -18 -11 -21 -26 -12 -23 12 -25 52 -3 74
15 15 15 30 -3 89 -5 16 -3 17 10 5 8 -8 12 -21 9 -29 -5 -13 -3 -13 12 -1 13
11 14 16 4 22 -9 6 -5 16 17 39 16 16 23 30 17 30 -7 0 -17 11 -22 25 -5 14
-15 25 -21 25 -6 0 -9 -6 -6 -14 3 -8 -3 -22 -13 -31 -23 -21 -74 -16 -78 8
-3 14 4 17 37 17 23 0 41 5 41 10 0 6 -18 10 -40 10 -29 0 -40 4 -40 15 0 11
11 15 40 15 22 0 40 -4 40 -9 0 -5 21 -8 48 -5 40 3 44 2 27 -9 -20 -12 -30
-47 -14 -47 5 0 9 9 9 21 0 11 4 18 9 15 5 -3 11 1 15 9 8 21 27 19 20 -2 -5
-15 -4 -16 5 -3 15 21 14 30 -4 30 -19 0 -19 13 2 53 10 20 18 27 21 19 2 -8
-1 -19 -7 -25 -6 -6 -11 -18 -11 -26 0 -8 10 -3 25 15 27 31 31 44 15 44 -5 0
-7 6 -5 13 3 6 1 26 -4 42 -8 25 -9 26 -10 8 -1 -19 -7 -23 -31 -23 -26 0 -30
-4 -30 -26 0 -14 4 -23 10 -19 6 3 10 -1 10 -10 0 -10 -5 -13 -12 -9 -7 4 -8
3 -4 -5 13 -20 -4 -53 -25 -48 -10 3 -17 1 -13 -4 3 -5 -1 -9 -9 -9 -17 0 -29
74 -36 207 -1 26 -4 30 -21 26 -21 -6 -30 22 -9 29 7 2 -2 18 -20 35 -29 30
-42 73 -22 73 17 0 23 40 8 54 -11 11 -17 12 -26 3 -16 -15 -41 16 -41 50 0
13 -4 23 -10 23 -5 0 -10 -11 -10 -24 0 -14 -4 -28 -10 -31 -5 -3 -10 -1 -10
5 0 6 -6 8 -12 5 -7 -4 -4 1 6 9 19 15 18 16 -20 16 -21 -1 -50 -8 -64 -16
-24 -15 -24 -15 -2 -10 19 4 21 2 11 -10 -9 -11 -15 -11 -25 -3 -7 6 -18 8
-25 4 -8 -6 -7 -10 2 -16 9 -6 2 -7 -20 -4 -22 4 -42 0 -57 -10 -13 -8 -24
-11 -24 -6 0 12 56 34 68 27 6 -3 12 0 15 7 3 7 27 24 53 37 27 14 55 30 62
37 6 6 22 15 35 19 12 4 48 24 80 45 32 22 63 39 68 39 6 0 27 13 47 29 20 16
64 43 97 61 33 18 78 48 100 66 22 18 43 33 47 34 3 0 5 -105 3 -233z m-2343
-887 c25 -17 58 -49 74 -73 43 -64 125 -239 119 -254 -2 -8 -1 -12 4 -9 5 3
25 -31 46 -77 21 -45 68 -145 105 -222 78 -160 150 -348 173 -450 18 -80 18
-76 -13 -170 -19 -56 -24 -91 -23 -175 0 -58 -2 -94 -5 -80 -2 14 -7 29 -12
33 -11 12 -160 19 -160 8 0 -5 -33 -7 -74 -5 -45 3 -77 1 -81 -5 -7 -12 22
-20 87 -23 35 -2 45 -6 40 -15 -4 -7 -18 -14 -31 -16 -12 -2 -26 -8 -29 -14
-11 -16 -382 -17 -382 -1 0 10 -2 10 -8 1 -5 -7 -38 -11 -100 -10 -76 2 -89 4
-75 14 25 19 2 62 -37 69 -21 5 -30 12 -30 25 0 11 -6 19 -14 19 -22 0 -46 43
-34 63 6 13 5 17 -5 17 -23 0 -50 49 -54 98 -2 25 -6 48 -9 53 -10 16 -24 9
-24 -12 0 -11 5 -17 10 -14 6 3 10 -3 10 -14 0 -19 -10 -26 -32 -22 -11 1 -20
-38 -12 -50 4 -8 3 -9 -4 -5 -12 7 -15 -6 -13 -49 1 -20 0 -20 -7 -1 -8 18
-10 16 -20 -12 -6 -18 -14 -32 -17 -32 -3 0 2 16 10 35 8 19 22 52 31 72 9 21
32 89 51 153 30 99 82 214 103 230 21 15 75 132 113 243 24 70 47 124 52 120
4 -5 5 -2 1 4 -13 24 40 172 129 358 29 61 58 130 65 155 21 84 17 83 82 40z
m2648 -140 c1 -23 23 -109 84 -324 14 -49 30 -134 36 -190 6 -56 15 -114 19
-131 5 -19 3 -43 -4 -65 l-13 -35 -4 35 c-5 31 -5 30 -5 -10 0 -25 -8 -69 -18
-97 -18 -56 -32 -72 -21 -25 5 20 4 23 -4 12 -5 -8 -10 -23 -10 -32 0 -10 -3
-18 -7 -18 -5 0 -9 -44 -10 -98 -2 -104 -20 -185 -24 -107 l-2 40 -6 -40 c-5
-33 -3 -41 13 -48 14 -5 16 -10 8 -20 -8 -9 -7 -21 4 -42 10 -19 11 -31 5 -33
-6 -2 -11 -10 -11 -17 0 -8 -7 -20 -15 -29 -9 -8 -17 -19 -18 -23 -1 -4 -6 -7
-11 -5 -5 2 -6 -5 -2 -15 5 -16 4 -16 -6 -3 -7 8 -20 15 -28 15 -9 0 -16 11
-18 28 -2 15 2 27 8 27 6 0 8 5 4 11 -4 7 -20 8 -41 4 -30 -5 -35 -4 -30 9 5
11 -4 18 -31 26 -20 5 -45 10 -54 10 -10 0 -18 5 -18 10 0 6 -7 10 -15 10 -8
0 -15 -4 -15 -10 0 -5 7 -10 16 -10 9 0 14 -6 11 -13 -3 -9 3 -13 17 -13 17 1
22 -5 24 -38 2 -22 6 -35 10 -29 5 7 21 8 47 3 39 -7 39 -8 8 -9 -18 0 -33 -6
-33 -11 0 -6 -9 -20 -20 -32 -11 -12 -20 -33 -20 -47 -1 -23 -2 -24 -11 -8 -5
9 -17 17 -24 17 -8 0 -15 -8 -15 -17 0 -15 -2 -16 -9 -3 -6 8 -7 18 -4 24 4 5
-1 7 -11 3 -21 -8 -296 -11 -304 -3 -3 3 33 7 79 8 79 1 77 2 -36 8 -72 4
-123 3 -126 -3 -4 -5 -11 -7 -16 -4 -6 4 -129 9 -275 11 -228 5 -268 3 -278
-9 -10 -12 -16 -13 -26 -4 -11 9 -14 7 -15 -12 -1 -22 -2 -21 -11 6 -17 52
-25 125 -14 125 6 0 17 9 24 20 17 28 32 25 33 -7 0 -25 1 -25 8 -8 5 11 4 25
-2 33 -5 7 -7 16 -3 20 4 4 14 -1 21 -11 12 -17 14 -17 34 4 22 24 25 32 15
42 -8 8 -33 -16 -27 -25 2 -5 0 -8 -5 -8 -26 0 -14 18 50 74 73 64 113 92 92
65 -6 -8 -8 -23 -4 -34 7 -19 7 -19 18 0 8 14 11 15 12 6 0 -12 3 -12 12 -3
10 10 10 15 -2 22 -8 5 -10 10 -5 10 6 0 4 4 -3 9 -10 6 0 18 37 45 30 22 82
80 128 143 43 58 87 115 98 127 11 12 17 17 13 12 -15 -19 -8 -28 10 -15 15
13 16 12 3 -3 -7 -10 -17 -15 -22 -13 -4 3 -13 -5 -20 -17 -7 -12 -18 -28 -25
-36 -7 -7 -10 -20 -7 -29 5 -12 3 -14 -7 -8 -10 6 -12 3 -7 -14 4 -18 3 -20
-9 -10 -8 7 -14 7 -14 1 0 -5 6 -15 14 -22 8 -6 12 -19 10 -28 -5 -15 -4 -14
6 1 6 9 16 14 22 11 6 -4 14 0 19 7 7 12 9 11 10 -1 0 -8 7 -1 14 15 l14 30 1
-32 c0 -27 4 -33 23 -33 21 0 62 10 115 25 16 6 22 3 22 -9 0 -12 9 -16 43
-15 29 2 34 3 15 6 -32 5 -38 23 -8 23 16 0 20 7 20 30 0 16 3 29 8 29 26 -4
42 3 42 21 0 17 -7 20 -40 20 -22 0 -40 3 -40 6 0 3 14 19 30 34 17 15 30 35
30 44 0 9 4 16 10 16 5 0 7 7 4 15 -4 8 -1 22 6 30 9 10 9 15 1 15 -6 0 -11 9
-11 21 0 11 4 18 9 14 5 -3 13 0 17 6 4 8 3 9 -4 5 -8 -5 -12 2 -12 21 0 23 2
25 11 13 9 -12 10 -11 4 5 -18 52 -13 67 13 45 9 -7 9 -7 2 2 -13 15 -13 31 0
23 6 -3 7 1 4 9 -5 12 -14 9 -49 -17 -23 -18 -41 -37 -38 -43 5 -15 -43 -68
-55 -60 -6 3 -22 -5 -36 -19 -14 -14 -29 -25 -33 -25 -4 0 15 22 41 49 28 28
55 47 62 44 8 -3 14 0 14 6 0 6 -5 11 -12 11 -6 0 -1 11 12 25 12 13 27 22 31
19 5 -3 9 2 9 11 0 23 180 236 192 229 7 -4 8 -2 4 4 -7 12 23 54 34 47 4 -2
7 1 7 8 0 17 75 127 106 155 30 29 118 54 129 38 4 -6 8 -22 8 -36z m-4820
-241 c7 -12 10 -50 7 -92 -2 -40 -2 -55 0 -34 3 25 9 37 20 37 12 0 14 -9 12
-44 -2 -24 -1 -42 3 -40 4 2 12 -12 19 -31 12 -33 16 -35 59 -37 44 -1 44 -1
7 -5 -38 -4 -38 -4 -31 -41 8 -45 12 -51 25 -32 8 13 10 13 18 0 5 -8 7 -26 4
-41 -4 -22 4 -35 46 -78 28 -28 59 -51 69 -51 11 0 25 -14 36 -37 14 -29 20
-34 27 -22 6 9 7 -3 3 -33 -4 -27 -4 -48 0 -48 4 0 16 21 27 47 19 45 20 46
35 25 13 -19 13 -24 -2 -48 -13 -19 -15 -30 -7 -42 11 -19 6 -45 -8 -36 -5 3
-9 -4 -9 -16 0 -25 29 -38 41 -19 5 9 6 -1 2 -25 -4 -28 -3 -37 5 -32 8 5 12
-5 12 -31 0 -42 -27 -69 -60 -58 -10 3 -25 -1 -34 -10 -19 -19 -38 -11 -29 12
5 14 1 15 -25 10 -27 -5 -32 -3 -32 12 0 29 -11 31 -37 5 -25 -25 -43 -31 -43
-14 0 6 -15 10 -32 11 l-33 1 35 11 35 11 -32 4 c-20 2 -40 13 -52 28 -13 16
-29 24 -50 24 l-32 0 27 -27 c25 -25 26 -27 8 -40 -16 -12 -17 -15 -4 -23 8
-5 23 -10 33 -10 9 0 17 -4 17 -9 0 -5 16 -12 35 -15 19 -4 35 -12 35 -19 0
-12 59 -67 73 -67 4 0 18 -10 30 -21 12 -12 40 -30 63 -40 39 -18 148 -108
130 -109 -5 0 -3 -6 3 -14 15 -18 -1 -30 -29 -21 -11 4 -20 2 -20 -4 0 -6 -21
-11 -50 -11 -28 0 -58 -4 -68 -9 -25 -14 -311 -32 -332 -21 -9 5 -27 6 -39 3
-12 -3 -43 0 -69 8 -52 15 -57 15 -236 4 -97 -5 -127 -4 -121 5 4 6 12 9 19 7
6 -3 17 2 24 9 10 11 10 14 0 14 -6 0 -3 7 8 16 19 15 18 15 -3 11 -13 -3 -26
-1 -29 4 -3 5 0 9 5 9 6 0 11 5 11 10 0 6 -7 10 -15 10 -21 0 -19 16 3 25 15
5 15 8 2 15 -12 7 -14 23 -10 85 5 73 -3 112 -13 63 -2 -13 -3 -6 -2 15 2 27
0 37 -9 34 -8 -3 -17 12 -25 38 -15 52 1 115 30 115 9 0 22 7 29 15 17 20 27
19 33 -5 3 -14 14 -20 32 -20 14 0 24 4 20 9 -3 5 0 13 5 16 18 11 160 17 160
7 0 -5 18 -9 40 -9 37 0 40 2 40 28 0 16 5 29 10 29 6 0 10 18 10 40 0 23 -5
40 -11 40 -8 0 -8 4 1 15 9 11 9 22 1 46 -6 18 -11 49 -11 71 l0 38 -42 -5
c-33 -4 -38 -3 -21 4 15 7 21 19 21 43 0 18 5 53 11 78 13 58 14 170 1 170 -5
0 -10 5 -10 10 0 6 7 10 15 10 9 0 18 7 21 15 7 17 84 22 84 5 0 -5 18 -10 40
-10 29 0 40 4 40 15 0 10 -10 15 -29 15 -37 0 -49 16 -18 24 17 5 19 8 8 15
-16 10 -6 31 14 31 8 0 19 -9 25 -21z m-905 -260 c-9 -13 28 -49 50 -49 8 0
15 -4 15 -10 0 -5 9 -10 20 -10 14 0 20 -7 20 -21 0 -11 5 -29 10 -40 7 -13 7
-19 0 -19 -18 0 -11 -18 21 -49 32 -33 49 -39 49 -18 0 8 4 7 10 -3 8 -12 10
-12 10 -1 0 8 3 11 6 8 4 -4 2 -12 -4 -19 -5 -7 -12 -24 -15 -38 -4 -25 -4
-25 -6 2 -1 20 -5 26 -16 22 -22 -9 -18 -33 8 -56 12 -11 15 -16 7 -12 -12 6
-13 5 -4 -7 7 -10 6 -46 -6 -129 -8 -63 -18 -110 -22 -105 -9 16 -22 78 -20
100 1 16 0 15 -9 -5 -6 -14 -7 -40 -3 -60 4 -19 7 -39 6 -43 -1 -4 3 -18 10
-30 10 -20 10 -21 -5 -8 -10 7 -17 22 -17 32 0 10 -5 21 -11 25 -7 4 -10 1 -7
-7 3 -8 -2 -20 -10 -28 -13 -13 -16 -13 -28 4 -12 16 -12 22 2 44 15 23 15 25
-1 37 -19 14 -11 38 11 30 8 -3 14 -1 14 4 0 6 -13 10 -30 10 -27 0 -30 -3
-30 -30 0 -20 -5 -30 -15 -30 -8 0 -15 8 -15 19 0 10 7 24 15 31 21 18 19 47
-5 53 -16 4 -20 14 -20 51 0 25 -4 46 -10 46 -6 0 -10 -29 -10 -66 0 -41 -4
-63 -10 -59 -5 3 -10 24 -10 46 0 21 -4 39 -10 39 -5 0 -10 12 -10 26 0 16
-12 37 -30 54 -16 15 -30 36 -30 45 0 9 -4 24 -10 34 -12 24 -1 98 12 79 6 -9
8 -2 5 21 -3 26 0 35 14 38 9 3 19 13 22 23 3 11 20 23 38 29 46 13 61 13 54
0z m1819 -535 c3 -8 14 -14 25 -14 11 0 21 -6 24 -12 2 -7 3 -5 2 5 -3 18 6
20 43 11 12 -4 22 -13 22 -20 0 -8 10 -14 23 -14 29 0 57 -19 40 -27 -20 -8
-15 -23 7 -23 25 0 27 -31 4 -65 -9 -14 -14 -34 -10 -47 6 -25 52 -52 62 -37
7 12 34 11 34 -1 0 -5 -8 -10 -18 -10 -25 0 -42 -20 -42 -50 0 -32 -14 -54
-31 -48 -8 3 -27 1 -43 -3 -41 -12 -76 12 -76 51 0 22 -5 29 -22 32 -13 2 -23
10 -24 18 -2 34 -5 39 -26 46 -13 4 -26 12 -30 18 -6 8 -11 7 -18 -4 -7 -12
-9 -11 -8 5 0 11 -1 27 -3 35 -3 9 3 14 14 14 11 -1 17 5 17 18 0 12 -6 18
-17 16 -14 -3 -17 4 -14 42 4 72 46 113 65 64z m766 -523 c0 -5 14 -11 31 -15
19 -3 28 -10 23 -17 -4 -8 0 -8 15 0 17 10 21 9 21 -3 0 -12 5 -14 25 -6 16 6
25 6 25 0 0 -5 11 -12 25 -16 29 -7 32 -19 8 -33 -16 -8 -15 -10 8 -16 14 -3
36 -5 50 -4 13 1 52 1 85 1 55 -2 62 -5 68 -24 4 -17 8 -20 14 -10 7 10 11 10
22 -3 7 -8 18 -15 26 -15 7 0 16 -9 19 -20 4 -11 11 -18 16 -14 14 8 70 -6 63
-17 -3 -5 -2 -14 2 -20 4 -8 9 -7 15 2 7 11 9 11 9 -2 0 -9 11 -20 25 -23 13
-3 30 -16 36 -29 7 -12 27 -39 46 -60 25 -28 32 -44 29 -65 -2 -15 -5 -30 -5
-33 -1 -4 -12 -9 -26 -11 -24 -5 -30 10 -10 24 6 5 5 12 -2 19 -10 10 -14 9
-19 -4 -5 -14 -21 -17 -88 -17 -56 0 -76 -3 -66 -10 13 -8 13 -10 -2 -10 -9 0
-19 -4 -22 -9 -4 -5 13 -7 36 -5 24 3 59 2 78 -2 29 -5 32 -7 15 -14 -31 -12
-376 7 -389 21 -8 9 -7 10 7 6 9 -4 17 -5 17 -3 0 3 3 12 6 21 6 15 1 16 -40
10 -27 -4 -51 -3 -59 3 -6 5 -30 12 -52 15 -22 3 -32 3 -23 1 11 -4 17 -14 16
-30 -2 -23 -18 -35 -18 -14 0 6 -8 14 -17 17 -10 4 -24 13 -31 20 -7 6 -20 9
-30 5 -16 -6 -16 -7 1 -10 9 -2 17 -8 17 -14 0 -7 -20 -8 -62 -3 -35 4 -71 8
-80 8 -26 2 -22 17 5 17 18 0 19 2 7 10 -13 9 -12 12 5 22 11 7 34 14 50 16
35 4 39 7 30 21 -3 6 -24 11 -45 11 -29 0 -40 5 -45 19 -3 11 -13 22 -21 25
-8 3 -13 2 -10 -3 3 -4 -6 -6 -19 -3 -32 6 -32 20 0 28 31 8 32 18 3 32 l-23
11 25 1 25 2 -25 8 c-24 8 -24 8 -2 9 23 1 30 15 12 26 -5 3 -10 1 -10 -4 0
-6 -4 -11 -10 -11 -5 0 -7 7 -3 15 8 23 57 45 96 45 59 0 75 72 27 120 -20 20
-20 20 25 20 25 0 45 -4 45 -9z m443 -727 c-4 -10 1 -17 16 -21 32 -8 28 -54
-6 -70 -33 -16 -53 -17 -53 -3 0 6 -17 10 -38 10 -42 0 -60 11 -85 53 l-17 27
30 0 c16 0 30 5 30 10 0 6 28 10 65 10 54 0 63 -2 58 -16z"/>
</g>
</svg>
